<svg width="72" height="72" viewBox="0 0 72 72" fill="none" xmlns="http://www.w3.org/2000/svg">
<g clip-path="url(#clip0_160_12)">
<path fill-rule="evenodd" clip-rule="evenodd" d="M8 72H64C68.4183 72 72 68.4183 72 64V8C72 3.58172 68.4183 0 64 0H8C3.58172 0 0 3.58172 0 8V64C0 68.4183 3.58172 72 8 72Z" fill="#6D6E72"/>
<path fill-rule="evenodd" clip-rule="evenodd" d="M13 22.8179V49.3834C13 50.8287 14.0467 52 15.4887 52H56.5113C57.9518 52 59 50.815 59 49.3834V22.8179C59 21.2319 58.0626 20 56.5113 20H15.4887C13.8775 20 13 21.2621 13 22.8179ZM16.7824 25.1318C16.7824 24.4917 17.1658 24.1254 17.7782 24.1254C18.157 24.1254 33.0636 33.6717 33.9665 34.2316L36.2995 35.6981C37.0392 35.1972 37.7819 34.7689 38.5486 34.2498C40.1133 33.2389 54.0361 24.1254 54.4195 24.1254C55.0334 24.1254 55.4152 24.4917 55.4152 25.1318C55.4152 25.8098 54.123 26.4832 53.2814 27.0023C47.9941 30.2591 42.7083 33.8094 37.4734 37.1872C37.168 37.3961 36.5765 37.8425 36.1333 37.7744C35.6391 37.6972 20.4705 27.8483 17.7108 26.2078C17.296 25.9611 16.7824 25.7356 16.7824 25.1318Z" fill="white"/>
</g>
<defs>
<clipPath id="clip0_160_12">
<rect width="72" height="72" fill="white"/>
</clipPath>
</defs>
</svg>
