<svg width="72" height="72" viewBox="0 0 72 72" fill="none" xmlns="http://www.w3.org/2000/svg">
<g clip-path="url(#clip0_160_18)">
<path fill-rule="evenodd" clip-rule="evenodd" d="M8 72H64C68.4183 72 72 68.4183 72 64V8C72 3.58172 68.4183 0 64 0H8C3.58172 0 0 3.58172 0 8V64C0 68.4183 3.58172 72 8 72Z" fill="#6D6E72"/>
<path fill-rule="evenodd" clip-rule="evenodd" d="M37.5488 21.8014C44.3505 22.6569 49.6764 27.9828 50.5319 34.7845C50.6603 35.8753 51.58 36.6667 52.6494 36.6667C52.735 36.6667 52.8205 36.6667 52.9061 36.6453C54.0825 36.4956 54.9166 35.4261 54.7669 34.2497C53.6761 25.5017 46.8102 18.6358 38.0622 17.545C36.8858 17.4167 35.8163 18.2508 35.688 19.4272C35.5383 20.6036 36.3725 21.6731 37.5488 21.8014ZM38.3616 26.3145C37.228 26.015 36.0516 26.6995 35.7522 27.8545C35.4527 29.0095 36.1372 30.1645 37.2922 30.4639C39.538 31.0414 41.2919 32.7953 41.8908 35.0625C42.1475 36.025 43.003 36.6667 43.9655 36.6667C44.1366 36.6667 44.3291 36.6453 44.5002 36.6025C45.6339 36.3031 46.3183 35.1267 46.0402 33.9931C45.035 30.2072 42.1047 27.277 38.3616 26.3145ZM51.1308 43.6395L45.698 43.0192C44.3933 42.8695 43.11 43.3186 42.1902 44.2384L38.2547 48.1739C32.2016 45.0939 27.2394 40.1531 24.1594 34.0786L28.1163 30.1217C29.0361 29.202 29.4852 27.9186 29.3355 26.6139L28.7152 21.2239C28.4586 19.0636 26.6405 17.438 24.4588 17.438H20.7585C18.3416 17.438 16.331 19.4486 16.4808 21.8656C17.6144 40.1317 32.223 54.7189 50.4678 55.8525C52.8847 56.0023 54.8953 53.9917 54.8953 51.5748V47.8745C54.9166 45.7142 53.2911 43.8961 51.1308 43.6395Z" fill="white"/>
</g>
<defs>
<clipPath id="clip0_160_18">
<rect width="72" height="72" fill="white"/>
</clipPath>
</defs>
</svg>
