<svg width="72" height="72" viewBox="0 0 72 72" fill="none" xmlns="http://www.w3.org/2000/svg">
<g clip-path="url(#clip0_160_18)">
<path fill-rule="evenodd" clip-rule="evenodd" d="M8 72H64C68.4183 72 72 68.4183 72 64V8C72 3.58172 68.4183 0 64 0H8C3.58172 0 0 3.58172 0 8V64C0 68.4183 3.58172 72 8 72Z" fill="black"/>
<path fill-rule="evenodd" clip-rule="evenodd" d="M37.5488 19.8014C44.3505 20.6569 49.6764 25.9828 50.5319 32.7845C50.6603 33.8753 51.58 34.6667 52.6494 34.6667C52.735 34.6667 52.8205 34.6667 52.9061 34.6453C54.0825 34.4956 54.9166 33.4261 54.7669 32.2497C53.6761 23.5017 46.8102 16.6358 38.0622 15.545C36.8858 15.4167 35.8163 16.2508 35.688 17.4272C35.5383 18.6036 36.3725 19.6731 37.5488 19.8014ZM38.3616 24.3145C37.228 24.015 36.0516 24.6995 35.7522 25.8545C35.4527 27.0095 36.1372 28.1645 37.2922 28.4639C39.538 29.0414 41.2919 30.7953 41.8908 33.0625C42.1475 34.025 43.003 34.6667 43.9655 34.6667C44.1366 34.6667 44.3291 34.6453 44.5002 34.6025C45.6339 34.3031 46.3183 33.1267 46.0402 31.9931C45.035 28.2072 42.1047 25.277 38.3616 24.3145ZM51.1308 41.6395L45.698 41.0192C44.3933 40.8695 43.11 41.3186 42.1902 42.2384L38.2547 46.1739C32.2016 43.0939 27.2394 38.1531 24.1594 32.0786L28.1163 28.1217C29.0361 27.202 29.4852 25.9186 29.3355 24.6139L28.7152 19.2239C28.4586 17.0636 26.6405 15.438 24.4588 15.438H20.7585C18.3416 15.438 16.331 17.4486 16.4808 19.8656C17.6144 38.1317 32.223 52.7189 50.4678 53.8525C52.8847 54.0023 54.8953 51.9917 54.8953 49.5748V45.8745C54.9166 43.7142 53.2911 41.8961 51.1308 41.6395Z" fill="white"/>
</g>
<defs>
<clipPath id="clip0_160_18">
<rect width="72" height="72" fill="white"/>
</clipPath>
</defs>
</svg>
