<svg width="640" height="300" viewBox="0 0 640 300" fill="none" xmlns="http://www.w3.org/2000/svg">
<path d="M0 100C0 44.7715 44.7715 0 100 0V0C155.228 0 200 44.7715 200 100V276C200 289.255 189.255 300 176 300H24C10.7452 300 0 289.255 0 276V100Z" fill="url(#paint0_linear_2047_33)"/>
<path d="M100.98 147.563C126.448 147.563 147.094 127.164 147.094 102C147.094 76.8365 126.448 56.4375 100.98 56.4375C75.5124 56.4375 54.8662 76.8365 54.8662 102C54.8662 127.164 75.5124 147.563 100.98 147.563Z" fill="white"/>
<path fill-rule="evenodd" clip-rule="evenodd" d="M100.981 174.9C141.73 174.9 174.764 142.262 174.764 102C174.764 61.7385 141.73 29.1001 100.981 29.1001C60.2319 29.1001 27.1982 61.7385 27.1982 102C27.1982 142.262 60.2319 174.9 100.981 174.9ZM100.981 164.775C136.071 164.775 164.516 136.67 164.516 102C164.516 67.3304 136.071 39.2251 100.981 39.2251C65.8915 39.2251 37.4458 67.3304 37.4458 102C37.4458 136.67 65.8915 164.775 100.981 164.775Z" fill="white"/>
<path fill-rule="evenodd" clip-rule="evenodd" d="M100.981 183C146.257 183 182.961 146.735 182.961 102C182.961 57.2649 146.257 21 100.981 21C55.704 21 19 57.2649 19 102C19 146.735 55.704 183 100.981 183ZM100.981 180.107C144.641 180.107 180.034 145.137 180.034 102C180.034 58.8626 144.641 23.8929 100.981 23.8929C57.3211 23.8929 21.9279 58.8626 21.9279 102C21.9279 145.137 57.3211 180.107 100.981 180.107Z" fill="white"/>
<path d="M30.7668 228.24C29.5348 228.24 28.3988 228.032 27.3588 227.616C26.3348 227.184 25.4388 226.584 24.6708 225.816C23.9188 225.032 23.3348 224.112 22.9188 223.056C22.5028 221.984 22.2948 220.816 22.2948 219.552C22.2948 218.32 22.5108 217.184 22.9428 216.144C23.3748 215.088 23.9828 214.176 24.7668 213.408C25.5508 212.624 26.4708 212.016 27.5268 211.584C28.5828 211.152 29.7268 210.936 30.9588 210.936C31.7588 210.936 32.5428 211.048 33.3108 211.272C34.0948 211.48 34.8068 211.792 35.4468 212.208C36.1028 212.624 36.6628 213.12 37.1268 213.696L34.8708 216.192C34.4868 215.808 34.0868 215.48 33.6708 215.208C33.2708 214.92 32.8388 214.704 32.3748 214.56C31.9268 214.4 31.4468 214.32 30.9348 214.32C30.2468 214.32 29.5988 214.448 28.9908 214.704C28.3988 214.96 27.8788 215.32 27.4308 215.784C26.9828 216.232 26.6228 216.784 26.3508 217.44C26.0948 218.08 25.9668 218.792 25.9668 219.576C25.9668 220.376 26.0948 221.104 26.3508 221.76C26.6068 222.4 26.9668 222.952 27.4308 223.416C27.8948 223.864 28.4468 224.216 29.0868 224.472C29.7428 224.712 30.4628 224.832 31.2468 224.832C31.7588 224.832 32.2548 224.76 32.7348 224.616C33.2148 224.472 33.6548 224.272 34.0548 224.016C34.4708 223.76 34.8388 223.464 35.1588 223.128L36.9108 225.936C36.5268 226.368 36.0068 226.76 35.3508 227.112C34.7108 227.464 33.9908 227.744 33.1908 227.952C32.3908 228.144 31.5828 228.24 30.7668 228.24ZM39.9457 228V211.2H51.2977V214.368H43.4497V224.832H51.4657V228H39.9457ZM41.6257 220.968V217.896H50.1457V220.968H41.6257ZM55.1801 228V211.2H62.6201C63.6601 211.2 64.6041 211.44 65.4521 211.92C66.3001 212.384 66.9641 213.016 67.4441 213.816C67.9401 214.616 68.1881 215.528 68.1881 216.552C68.1881 217.56 67.9401 218.48 67.4441 219.312C66.9641 220.128 66.3001 220.776 65.4521 221.256C64.6041 221.736 63.6601 221.976 62.6201 221.976H58.6601V228H55.1801ZM64.7081 228L60.4361 220.416L64.1321 219.816L68.8841 228.024L64.7081 228ZM58.6601 219.048H62.4521C62.8841 219.048 63.2601 218.952 63.5801 218.76C63.9161 218.552 64.1721 218.272 64.3481 217.92C64.5241 217.552 64.6121 217.144 64.6121 216.696C64.6121 216.216 64.5081 215.8 64.3001 215.448C64.0921 215.096 63.7881 214.824 63.3881 214.632C62.9881 214.424 62.5241 214.32 61.9961 214.32H58.6601V219.048ZM75.02 228V214.44H70.124V211.2H83.66V214.44H78.62V228H75.02ZM86.2012 228V224.904H89.0092V214.296H86.2012V211.2H95.4172V214.296H92.6092V224.904H95.4172V228H86.2012ZM99.3598 228V211.2H102.96V228H99.3598ZM101.016 221.328V218.232H109.704V221.328H101.016ZM101.016 214.44V211.2H110.712V214.44H101.016ZM118.471 228V219.624L118.639 220.8L111.847 211.2H115.999L121.183 218.64L119.551 218.568L124.231 211.2H128.239L121.735 221.064L122.095 219.432V228H118.471ZM129.936 228V224.904H132.744V214.296H129.936V211.2H139.152V214.296H136.344V224.904H139.152V228H129.936ZM143.094 228V211.2H146.31L155.598 223.752H154.926C154.862 223.256 154.806 222.776 154.758 222.312C154.71 221.832 154.662 221.352 154.614 220.872C154.582 220.376 154.55 219.872 154.518 219.36C154.502 218.832 154.486 218.28 154.47 217.704C154.454 217.112 154.446 216.472 154.446 215.784V211.2H157.974V228H154.71L145.23 215.328L146.142 215.352C146.222 216.184 146.286 216.896 146.334 217.488C146.398 218.064 146.446 218.568 146.478 219C146.51 219.432 146.534 219.808 146.55 220.128C146.582 220.448 146.598 220.752 146.598 221.04C146.614 221.328 146.622 221.632 146.622 221.952V228H143.094ZM170.04 228.24C168.744 228.24 167.552 228.024 166.464 227.592C165.392 227.144 164.464 226.528 163.68 225.744C162.896 224.96 162.288 224.04 161.856 222.984C161.44 221.928 161.232 220.784 161.232 219.552C161.232 218.32 161.448 217.184 161.88 216.144C162.328 215.088 162.952 214.176 163.752 213.408C164.568 212.624 165.52 212.016 166.608 211.584C167.696 211.152 168.888 210.936 170.184 210.936C171.08 210.936 171.936 211.056 172.752 211.296C173.568 211.536 174.312 211.864 174.984 212.28C175.656 212.696 176.216 213.176 176.664 213.72L174.432 216.072C174.016 215.672 173.576 215.336 173.112 215.064C172.664 214.776 172.192 214.56 171.696 214.416C171.2 214.256 170.688 214.176 170.16 214.176C169.408 214.176 168.712 214.312 168.072 214.584C167.448 214.856 166.896 215.232 166.416 215.712C165.936 216.192 165.56 216.76 165.288 217.416C165.032 218.072 164.904 218.784 164.904 219.552C164.904 220.304 165.04 221.016 165.312 221.688C165.6 222.344 165.984 222.92 166.464 223.416C166.96 223.896 167.536 224.28 168.192 224.568C168.848 224.84 169.552 224.976 170.304 224.976C170.832 224.976 171.336 224.896 171.816 224.736C172.296 224.576 172.712 224.352 173.064 224.064C173.432 223.76 173.712 223.408 173.904 223.008C174.112 222.608 174.216 222.184 174.216 221.736V221.16L174.696 221.832H169.896V218.832H177.672C177.688 219.008 177.704 219.224 177.72 219.48C177.752 219.736 177.768 219.992 177.768 220.248C177.784 220.488 177.792 220.68 177.792 220.824C177.792 221.912 177.592 222.912 177.192 223.824C176.808 224.736 176.264 225.52 175.56 226.176C174.872 226.832 174.056 227.344 173.112 227.712C172.168 228.064 171.144 228.24 170.04 228.24ZM43.391 258V241.2H50.519C51.511 241.2 52.407 241.44 53.207 241.92C54.023 242.384 54.663 243.024 55.127 243.84C55.607 244.656 55.847 245.576 55.847 246.6C55.847 247.64 55.607 248.576 55.127 249.408C54.663 250.24 54.023 250.904 53.207 251.4C52.407 251.88 51.511 252.12 50.519 252.12H46.991V258H43.391ZM46.943 248.88H50.111C50.495 248.88 50.839 248.784 51.143 248.592C51.447 248.384 51.687 248.112 51.863 247.776C52.055 247.44 52.151 247.056 52.151 246.624C52.151 246.192 52.055 245.816 51.863 245.496C51.687 245.16 51.447 244.904 51.143 244.728C50.839 244.536 50.495 244.44 50.111 244.44H46.943V248.88ZM59.0707 258V241.2H62.6707V254.76H70.2787V258H59.0707ZM80.0687 258.144C78.7087 258.144 77.4927 257.864 76.4207 257.304C75.3647 256.728 74.5327 255.944 73.9247 254.952C73.3167 253.944 73.0127 252.808 73.0127 251.544V241.176H76.6367V251.328C76.6367 252 76.7887 252.608 77.0927 253.152C77.3967 253.68 77.8047 254.104 78.3167 254.424C78.8447 254.744 79.4287 254.904 80.0687 254.904C80.7247 254.904 81.3167 254.744 81.8447 254.424C82.3887 254.104 82.8127 253.68 83.1167 253.152C83.4367 252.608 83.5967 252 83.5967 251.328V241.176H87.1007V251.544C87.1007 252.808 86.7967 253.944 86.1887 254.952C85.5807 255.944 84.7407 256.728 83.6687 257.304C82.6127 257.864 81.4127 258.144 80.0687 258.144ZM91.3207 258V241.2H94.6087L100.729 251.16L98.5687 251.136L104.761 241.2H107.905V258H104.377V252.24C104.377 250.8 104.409 249.504 104.473 248.352C104.553 247.2 104.681 246.056 104.857 244.92L105.289 246.048L100.369 253.68H98.7847L93.9607 246.096L94.3687 244.92C94.5447 245.992 94.6647 247.096 94.7287 248.232C94.8087 249.352 94.8487 250.688 94.8487 252.24V258H91.3207ZM112.274 258V241.2H119.57C120.69 241.2 121.634 241.368 122.402 241.704C123.186 242.024 123.778 242.496 124.178 243.12C124.578 243.744 124.778 244.488 124.778 245.352C124.778 246.312 124.538 247.112 124.058 247.752C123.578 248.392 122.89 248.832 121.994 249.072L121.97 248.592C122.706 248.768 123.354 249.056 123.914 249.456C124.474 249.856 124.906 250.352 125.21 250.944C125.514 251.536 125.666 252.208 125.666 252.96C125.666 253.792 125.53 254.528 125.258 255.168C124.986 255.792 124.586 256.312 124.058 256.728C123.53 257.144 122.906 257.464 122.186 257.688C121.482 257.896 120.69 258 119.81 258H112.274ZM115.73 254.88H119.666C120.178 254.88 120.61 254.808 120.962 254.664C121.33 254.504 121.61 254.264 121.802 253.944C121.994 253.624 122.09 253.248 122.09 252.816C122.09 252.4 121.986 252.048 121.778 251.76C121.57 251.472 121.274 251.256 120.89 251.112C120.522 250.952 120.074 250.872 119.546 250.872H115.73V254.88ZM115.73 248.016H119.138C119.57 248.016 119.946 247.936 120.266 247.776C120.586 247.616 120.826 247.4 120.986 247.128C121.162 246.856 121.25 246.536 121.25 246.168C121.25 245.576 121.058 245.12 120.674 244.8C120.29 244.48 119.714 244.32 118.946 244.32H115.73V248.016ZM128.938 258V241.2H140.29V244.368H132.442V254.832H140.458V258H128.938ZM130.618 250.968V247.896H139.138V250.968H130.618ZM144.172 258V241.2H151.612C152.652 241.2 153.596 241.44 154.444 241.92C155.292 242.384 155.956 243.016 156.436 243.816C156.932 244.616 157.18 245.528 157.18 246.552C157.18 247.56 156.932 248.48 156.436 249.312C155.956 250.128 155.292 250.776 154.444 251.256C153.596 251.736 152.652 251.976 151.612 251.976H147.652V258H144.172ZM153.7 258L149.428 250.416L153.124 249.816L157.876 258.024L153.7 258ZM147.652 249.048H151.444C151.876 249.048 152.252 248.952 152.572 248.76C152.908 248.552 153.164 248.272 153.34 247.92C153.516 247.552 153.604 247.144 153.604 246.696C153.604 246.216 153.5 245.8 153.292 245.448C153.084 245.096 152.78 244.824 152.38 244.632C151.98 244.424 151.516 244.32 150.988 244.32H147.652V249.048Z" fill="white"/>
<path d="M440 100C440 44.7715 484.772 0 540 0V0C595.228 0 640 44.7715 640 100V276C640 289.255 629.255 300 616 300H464C450.745 300 440 289.255 440 276V100Z" fill="url(#paint1_linear_2047_33)"/>
<path d="M470.767 228.24C469.535 228.24 468.399 228.032 467.359 227.616C466.335 227.184 465.439 226.584 464.671 225.816C463.919 225.032 463.335 224.112 462.919 223.056C462.503 221.984 462.295 220.816 462.295 219.552C462.295 218.32 462.511 217.184 462.943 216.144C463.375 215.088 463.983 214.176 464.767 213.408C465.551 212.624 466.471 212.016 467.527 211.584C468.583 211.152 469.727 210.936 470.959 210.936C471.759 210.936 472.543 211.048 473.311 211.272C474.095 211.48 474.807 211.792 475.447 212.208C476.103 212.624 476.663 213.12 477.127 213.696L474.871 216.192C474.487 215.808 474.087 215.48 473.671 215.208C473.271 214.92 472.839 214.704 472.375 214.56C471.927 214.4 471.447 214.32 470.935 214.32C470.247 214.32 469.599 214.448 468.991 214.704C468.399 214.96 467.879 215.32 467.431 215.784C466.983 216.232 466.623 216.784 466.351 217.44C466.095 218.08 465.967 218.792 465.967 219.576C465.967 220.376 466.095 221.104 466.351 221.76C466.607 222.4 466.967 222.952 467.431 223.416C467.895 223.864 468.447 224.216 469.087 224.472C469.743 224.712 470.463 224.832 471.247 224.832C471.759 224.832 472.255 224.76 472.735 224.616C473.215 224.472 473.655 224.272 474.055 224.016C474.471 223.76 474.839 223.464 475.159 223.128L476.911 225.936C476.527 226.368 476.007 226.76 475.351 227.112C474.711 227.464 473.991 227.744 473.191 227.952C472.391 228.144 471.583 228.24 470.767 228.24ZM479.946 228V211.2H491.298V214.368H483.45V224.832H491.466V228H479.946ZM481.626 220.968V217.896H490.146V220.968H481.626ZM495.18 228V211.2H502.62C503.66 211.2 504.604 211.44 505.452 211.92C506.3 212.384 506.964 213.016 507.444 213.816C507.94 214.616 508.188 215.528 508.188 216.552C508.188 217.56 507.94 218.48 507.444 219.312C506.964 220.128 506.3 220.776 505.452 221.256C504.604 221.736 503.66 221.976 502.62 221.976H498.66V228H495.18ZM504.708 228L500.436 220.416L504.132 219.816L508.884 228.024L504.708 228ZM498.66 219.048H502.452C502.884 219.048 503.26 218.952 503.58 218.76C503.916 218.552 504.172 218.272 504.348 217.92C504.524 217.552 504.612 217.144 504.612 216.696C504.612 216.216 504.508 215.8 504.3 215.448C504.092 215.096 503.788 214.824 503.388 214.632C502.988 214.424 502.524 214.32 501.996 214.32H498.66V219.048ZM515.02 228V214.44H510.124V211.2H523.66V214.44H518.62V228H515.02ZM526.201 228V224.904H529.009V214.296H526.201V211.2H535.417V214.296H532.609V224.904H535.417V228H526.201ZM539.36 228V211.2H542.96V228H539.36ZM541.016 221.328V218.232H549.704V221.328H541.016ZM541.016 214.44V211.2H550.712V214.44H541.016ZM558.471 228V219.624L558.639 220.8L551.847 211.2H555.999L561.183 218.64L559.551 218.568L564.231 211.2H568.239L561.735 221.064L562.095 219.432V228H558.471ZM569.936 228V224.904H572.744V214.296H569.936V211.2H579.152V214.296H576.344V224.904H579.152V228H569.936ZM583.094 228V211.2H586.31L595.598 223.752H594.926C594.862 223.256 594.806 222.776 594.758 222.312C594.71 221.832 594.662 221.352 594.614 220.872C594.582 220.376 594.55 219.872 594.518 219.36C594.502 218.832 594.486 218.28 594.47 217.704C594.454 217.112 594.446 216.472 594.446 215.784V211.2H597.974V228H594.71L585.23 215.328L586.142 215.352C586.222 216.184 586.286 216.896 586.334 217.488C586.398 218.064 586.446 218.568 586.478 219C586.51 219.432 586.534 219.808 586.55 220.128C586.582 220.448 586.598 220.752 586.598 221.04C586.614 221.328 586.622 221.632 586.622 221.952V228H583.094ZM610.04 228.24C608.744 228.24 607.552 228.024 606.464 227.592C605.392 227.144 604.464 226.528 603.68 225.744C602.896 224.96 602.288 224.04 601.856 222.984C601.44 221.928 601.232 220.784 601.232 219.552C601.232 218.32 601.448 217.184 601.88 216.144C602.328 215.088 602.952 214.176 603.752 213.408C604.568 212.624 605.52 212.016 606.608 211.584C607.696 211.152 608.888 210.936 610.184 210.936C611.08 210.936 611.936 211.056 612.752 211.296C613.568 211.536 614.312 211.864 614.984 212.28C615.656 212.696 616.216 213.176 616.664 213.72L614.432 216.072C614.016 215.672 613.576 215.336 613.112 215.064C612.664 214.776 612.192 214.56 611.696 214.416C611.2 214.256 610.688 214.176 610.16 214.176C609.408 214.176 608.712 214.312 608.072 214.584C607.448 214.856 606.896 215.232 606.416 215.712C605.936 216.192 605.56 216.76 605.288 217.416C605.032 218.072 604.904 218.784 604.904 219.552C604.904 220.304 605.04 221.016 605.312 221.688C605.6 222.344 605.984 222.92 606.464 223.416C606.96 223.896 607.536 224.28 608.192 224.568C608.848 224.84 609.552 224.976 610.304 224.976C610.832 224.976 611.336 224.896 611.816 224.736C612.296 224.576 612.712 224.352 613.064 224.064C613.432 223.76 613.712 223.408 613.904 223.008C614.112 222.608 614.216 222.184 614.216 221.736V221.16L614.696 221.832H609.896V218.832H617.672C617.688 219.008 617.704 219.224 617.72 219.48C617.752 219.736 617.768 219.992 617.768 220.248C617.784 220.488 617.792 220.68 617.792 220.824C617.792 221.912 617.592 222.912 617.192 223.824C616.808 224.736 616.264 225.52 615.56 226.176C614.872 226.832 614.056 227.344 613.112 227.712C612.168 228.064 611.144 228.24 610.04 228.24ZM461.442 258V241.2H468.33C469.562 241.2 470.674 241.408 471.666 241.824C472.674 242.224 473.538 242.8 474.258 243.552C474.994 244.288 475.554 245.168 475.938 246.192C476.322 247.216 476.514 248.352 476.514 249.6C476.514 250.832 476.322 251.968 475.938 253.008C475.554 254.032 475.002 254.92 474.282 255.672C473.562 256.408 472.698 256.984 471.69 257.4C470.682 257.8 469.562 258 468.33 258H461.442ZM465.042 255.384L464.658 254.76H468.21C468.93 254.76 469.578 254.64 470.154 254.4C470.73 254.144 471.218 253.8 471.618 253.368C472.034 252.92 472.346 252.376 472.554 251.736C472.762 251.096 472.866 250.384 472.866 249.6C472.866 248.816 472.762 248.112 472.554 247.488C472.346 246.848 472.034 246.304 471.618 245.856C471.218 245.408 470.73 245.064 470.154 244.824C469.578 244.568 468.93 244.44 468.21 244.44H464.586L465.042 243.864V255.384ZM479.77 258V241.2H487.21C488.25 241.2 489.194 241.44 490.042 241.92C490.89 242.384 491.554 243.016 492.034 243.816C492.53 244.616 492.778 245.528 492.778 246.552C492.778 247.56 492.53 248.48 492.034 249.312C491.554 250.128 490.89 250.776 490.042 251.256C489.194 251.736 488.25 251.976 487.21 251.976H483.25V258H479.77ZM489.298 258L485.026 250.416L488.722 249.816L493.474 258.024L489.298 258ZM483.25 249.048H487.042C487.474 249.048 487.85 248.952 488.17 248.76C488.506 248.552 488.762 248.272 488.938 247.92C489.114 247.552 489.202 247.144 489.202 246.696C489.202 246.216 489.098 245.8 488.89 245.448C488.682 245.096 488.378 244.824 487.978 244.632C487.578 244.424 487.114 244.32 486.586 244.32H483.25V249.048ZM494.583 258L501.159 241.2H504.375L510.927 258H507.231L503.847 248.952C503.751 248.696 503.631 248.368 503.487 247.968C503.359 247.568 503.223 247.144 503.079 246.696C502.935 246.248 502.799 245.824 502.671 245.424C502.543 245.008 502.447 244.664 502.383 244.392L503.031 244.368C502.935 244.736 502.823 245.12 502.695 245.52C502.583 245.904 502.463 246.304 502.335 246.72C502.207 247.12 502.071 247.512 501.927 247.896C501.783 248.28 501.647 248.656 501.519 249.024L498.135 258H494.583ZM497.631 254.472L498.807 251.568H506.511L507.711 254.472H497.631ZM512.854 258V254.904H515.662V244.296H512.854V241.2H522.07V244.296H519.262V254.904H522.07V258H512.854ZM526.012 258V241.2H529.228L538.516 253.752H537.844C537.78 253.256 537.724 252.776 537.676 252.312C537.628 251.832 537.58 251.352 537.532 250.872C537.5 250.376 537.468 249.872 537.436 249.36C537.42 248.832 537.404 248.28 537.388 247.704C537.372 247.112 537.364 246.472 537.364 245.784V241.2H540.892V258H537.628L528.148 245.328L529.06 245.352C529.14 246.184 529.204 246.896 529.252 247.488C529.316 248.064 529.364 248.568 529.396 249C529.428 249.432 529.452 249.808 529.468 250.128C529.5 250.448 529.516 250.752 529.516 251.04C529.532 251.328 529.54 251.632 529.54 251.952V258H526.012ZM545.254 258V241.2H548.854V254.76H556.462V258H545.254ZM557.817 258L564.393 241.2H567.609L574.161 258H570.465L567.081 248.952C566.985 248.696 566.865 248.368 566.721 247.968C566.593 247.568 566.457 247.144 566.313 246.696C566.169 246.248 566.033 245.824 565.905 245.424C565.777 245.008 565.681 244.664 565.617 244.392L566.265 244.368C566.169 244.736 566.057 245.12 565.929 245.52C565.817 245.904 565.697 246.304 565.569 246.72C565.441 247.12 565.305 247.512 565.161 247.896C565.017 248.28 564.881 248.656 564.753 249.024L561.369 258H557.817ZM560.865 254.472L562.041 251.568H569.745L570.945 254.472H560.865ZM578.99 258V249.624L579.158 250.8L572.366 241.2H576.518L581.702 248.64L580.07 248.568L584.75 241.2H588.758L582.254 251.064L582.614 249.432V258H578.99ZM590.887 258V241.2H602.239V244.368H594.391V254.832H602.407V258H590.887ZM592.567 250.968V247.896H601.087V250.968H592.567ZM606.122 258V241.2H613.562C614.602 241.2 615.546 241.44 616.394 241.92C617.242 242.384 617.906 243.016 618.386 243.816C618.882 244.616 619.13 245.528 619.13 246.552C619.13 247.56 618.882 248.48 618.386 249.312C617.906 250.128 617.242 250.776 616.394 251.256C615.546 251.736 614.602 251.976 613.562 251.976H609.602V258H606.122ZM615.65 258L611.378 250.416L615.074 249.816L619.826 258.024L615.65 258ZM609.602 249.048H613.394C613.826 249.048 614.202 248.952 614.522 248.76C614.858 248.552 615.114 248.272 615.29 247.92C615.466 247.552 615.554 247.144 615.554 246.696C615.554 246.216 615.45 245.8 615.242 245.448C615.034 245.096 614.73 244.824 614.33 244.632C613.93 244.424 613.466 244.32 612.938 244.32H609.602V249.048Z" fill="white"/>
<path fill-rule="evenodd" clip-rule="evenodd" d="M540.982 183C586.259 183 622.961 146.735 622.961 102C622.961 57.2649 586.259 21 540.982 21C495.704 21 459 57.2649 459 102C459 146.735 495.704 183 540.982 183ZM540.982 156.675C571.54 156.675 596.318 132.196 596.318 102C596.318 71.8037 571.54 47.325 540.982 47.325C510.419 47.325 485.644 71.8037 485.644 102C485.644 132.196 510.419 156.675 540.982 156.675Z" fill="white"/>
<path d="M220 100C220 44.7715 264.772 0 320 0V0C375.228 0 420 44.7715 420 100V276C420 289.255 409.255 300 396 300H244C230.745 300 220 289.255 220 276V100Z" fill="url(#paint2_linear_2047_33)"/>
<path d="M250.767 228.24C249.535 228.24 248.399 228.032 247.359 227.616C246.335 227.184 245.439 226.584 244.671 225.816C243.919 225.032 243.335 224.112 242.919 223.056C242.503 221.984 242.295 220.816 242.295 219.552C242.295 218.32 242.511 217.184 242.943 216.144C243.375 215.088 243.983 214.176 244.767 213.408C245.551 212.624 246.471 212.016 247.527 211.584C248.583 211.152 249.727 210.936 250.959 210.936C251.759 210.936 252.543 211.048 253.311 211.272C254.095 211.48 254.807 211.792 255.447 212.208C256.103 212.624 256.663 213.12 257.127 213.696L254.871 216.192C254.487 215.808 254.087 215.48 253.671 215.208C253.271 214.92 252.839 214.704 252.375 214.56C251.927 214.4 251.447 214.32 250.935 214.32C250.247 214.32 249.599 214.448 248.991 214.704C248.399 214.96 247.879 215.32 247.431 215.784C246.983 216.232 246.623 216.784 246.351 217.44C246.095 218.08 245.967 218.792 245.967 219.576C245.967 220.376 246.095 221.104 246.351 221.76C246.607 222.4 246.967 222.952 247.431 223.416C247.895 223.864 248.447 224.216 249.087 224.472C249.743 224.712 250.463 224.832 251.247 224.832C251.759 224.832 252.255 224.76 252.735 224.616C253.215 224.472 253.655 224.272 254.055 224.016C254.471 223.76 254.839 223.464 255.159 223.128L256.911 225.936C256.527 226.368 256.007 226.76 255.351 227.112C254.711 227.464 253.991 227.744 253.191 227.952C252.391 228.144 251.583 228.24 250.767 228.24ZM259.946 228V211.2H271.298V214.368H263.45V224.832H271.466V228H259.946ZM261.626 220.968V217.896H270.146V220.968H261.626ZM275.18 228V211.2H282.62C283.66 211.2 284.604 211.44 285.452 211.92C286.3 212.384 286.964 213.016 287.444 213.816C287.94 214.616 288.188 215.528 288.188 216.552C288.188 217.56 287.94 218.48 287.444 219.312C286.964 220.128 286.3 220.776 285.452 221.256C284.604 221.736 283.66 221.976 282.62 221.976H278.66V228H275.18ZM284.708 228L280.436 220.416L284.132 219.816L288.884 228.024L284.708 228ZM278.66 219.048H282.452C282.884 219.048 283.26 218.952 283.58 218.76C283.916 218.552 284.172 218.272 284.348 217.92C284.524 217.552 284.612 217.144 284.612 216.696C284.612 216.216 284.508 215.8 284.3 215.448C284.092 215.096 283.788 214.824 283.388 214.632C282.988 214.424 282.524 214.32 281.996 214.32H278.66V219.048ZM295.02 228V214.44H290.124V211.2H303.66V214.44H298.62V228H295.02ZM306.201 228V224.904H309.009V214.296H306.201V211.2H315.417V214.296H312.609V224.904H315.417V228H306.201ZM319.36 228V211.2H322.96V228H319.36ZM321.016 221.328V218.232H329.704V221.328H321.016ZM321.016 214.44V211.2H330.712V214.44H321.016ZM338.471 228V219.624L338.639 220.8L331.847 211.2H335.999L341.183 218.64L339.551 218.568L344.231 211.2H348.239L341.735 221.064L342.095 219.432V228H338.471ZM349.936 228V224.904H352.744V214.296H349.936V211.2H359.152V214.296H356.344V224.904H359.152V228H349.936ZM363.094 228V211.2H366.31L375.598 223.752H374.926C374.862 223.256 374.806 222.776 374.758 222.312C374.71 221.832 374.662 221.352 374.614 220.872C374.582 220.376 374.55 219.872 374.518 219.36C374.502 218.832 374.486 218.28 374.47 217.704C374.454 217.112 374.446 216.472 374.446 215.784V211.2H377.974V228H374.71L365.23 215.328L366.142 215.352C366.222 216.184 366.286 216.896 366.334 217.488C366.398 218.064 366.446 218.568 366.478 219C366.51 219.432 366.534 219.808 366.55 220.128C366.582 220.448 366.598 220.752 366.598 221.04C366.614 221.328 366.622 221.632 366.622 221.952V228H363.094ZM390.04 228.24C388.744 228.24 387.552 228.024 386.464 227.592C385.392 227.144 384.464 226.528 383.68 225.744C382.896 224.96 382.288 224.04 381.856 222.984C381.44 221.928 381.232 220.784 381.232 219.552C381.232 218.32 381.448 217.184 381.88 216.144C382.328 215.088 382.952 214.176 383.752 213.408C384.568 212.624 385.52 212.016 386.608 211.584C387.696 211.152 388.888 210.936 390.184 210.936C391.08 210.936 391.936 211.056 392.752 211.296C393.568 211.536 394.312 211.864 394.984 212.28C395.656 212.696 396.216 213.176 396.664 213.72L394.432 216.072C394.016 215.672 393.576 215.336 393.112 215.064C392.664 214.776 392.192 214.56 391.696 214.416C391.2 214.256 390.688 214.176 390.16 214.176C389.408 214.176 388.712 214.312 388.072 214.584C387.448 214.856 386.896 215.232 386.416 215.712C385.936 216.192 385.56 216.76 385.288 217.416C385.032 218.072 384.904 218.784 384.904 219.552C384.904 220.304 385.04 221.016 385.312 221.688C385.6 222.344 385.984 222.92 386.464 223.416C386.96 223.896 387.536 224.28 388.192 224.568C388.848 224.84 389.552 224.976 390.304 224.976C390.832 224.976 391.336 224.896 391.816 224.736C392.296 224.576 392.712 224.352 393.064 224.064C393.432 223.76 393.712 223.408 393.904 223.008C394.112 222.608 394.216 222.184 394.216 221.736V221.16L394.696 221.832H389.896V218.832H397.672C397.688 219.008 397.704 219.224 397.72 219.48C397.752 219.736 397.768 219.992 397.768 220.248C397.784 220.488 397.792 220.68 397.792 220.824C397.792 221.912 397.592 222.912 397.192 223.824C396.808 224.736 396.264 225.52 395.56 226.176C394.872 226.832 394.056 227.344 393.112 227.712C392.168 228.064 391.144 228.24 390.04 228.24ZM259.54 258.24C258.244 258.24 257.052 258.024 255.964 257.592C254.892 257.144 253.964 256.528 253.18 255.744C252.396 254.96 251.788 254.04 251.356 252.984C250.94 251.928 250.732 250.784 250.732 249.552C250.732 248.32 250.948 247.184 251.38 246.144C251.828 245.088 252.452 244.176 253.252 243.408C254.068 242.624 255.02 242.016 256.108 241.584C257.196 241.152 258.388 240.936 259.684 240.936C260.58 240.936 261.436 241.056 262.252 241.296C263.068 241.536 263.812 241.864 264.484 242.28C265.156 242.696 265.716 243.176 266.164 243.72L263.932 246.072C263.516 245.672 263.076 245.336 262.612 245.064C262.164 244.776 261.692 244.56 261.196 244.416C260.7 244.256 260.188 244.176 259.66 244.176C258.908 244.176 258.212 244.312 257.572 244.584C256.948 244.856 256.396 245.232 255.916 245.712C255.436 246.192 255.06 246.76 254.788 247.416C254.532 248.072 254.404 248.784 254.404 249.552C254.404 250.304 254.54 251.016 254.812 251.688C255.1 252.344 255.484 252.92 255.964 253.416C256.46 253.896 257.036 254.28 257.692 254.568C258.348 254.84 259.052 254.976 259.804 254.976C260.332 254.976 260.836 254.896 261.316 254.736C261.796 254.576 262.212 254.352 262.564 254.064C262.932 253.76 263.212 253.408 263.404 253.008C263.612 252.608 263.716 252.184 263.716 251.736V251.16L264.196 251.832H259.396V248.832H267.172C267.188 249.008 267.204 249.224 267.22 249.48C267.252 249.736 267.268 249.992 267.268 250.248C267.284 250.488 267.292 250.68 267.292 250.824C267.292 251.912 267.092 252.912 266.692 253.824C266.308 254.736 265.764 255.52 265.06 256.176C264.372 256.832 263.556 257.344 262.612 257.712C261.668 258.064 260.644 258.24 259.54 258.24ZM268.243 258L274.819 241.2H278.035L284.587 258H280.891L277.507 248.952C277.411 248.696 277.291 248.368 277.147 247.968C277.019 247.568 276.883 247.144 276.739 246.696C276.595 246.248 276.459 245.824 276.331 245.424C276.203 245.008 276.107 244.664 276.043 244.392L276.691 244.368C276.595 244.736 276.483 245.12 276.355 245.52C276.243 245.904 276.123 246.304 275.995 246.72C275.867 247.12 275.731 247.512 275.587 247.896C275.443 248.28 275.307 248.656 275.179 249.024L271.795 258H268.243ZM271.291 254.472L272.467 251.568H280.171L281.371 254.472H271.291ZM292.394 258.24C291.354 258.24 290.402 258.112 289.538 257.856C288.69 257.6 287.93 257.224 287.258 256.728C286.602 256.232 286.01 255.632 285.482 254.928L287.738 252.36C288.522 253.448 289.298 254.192 290.066 254.592C290.85 254.976 291.698 255.168 292.61 255.168C293.106 255.168 293.546 255.104 293.93 254.976C294.33 254.832 294.642 254.632 294.866 254.376C295.09 254.12 295.202 253.816 295.202 253.464C295.202 253.208 295.146 252.976 295.034 252.768C294.922 252.544 294.762 252.352 294.554 252.192C294.346 252.016 294.098 251.864 293.81 251.736C293.522 251.592 293.202 251.472 292.85 251.376C292.498 251.264 292.114 251.176 291.698 251.112C290.802 250.904 290.018 250.656 289.346 250.368C288.674 250.064 288.114 249.696 287.666 249.264C287.218 248.816 286.882 248.312 286.658 247.752C286.45 247.192 286.346 246.56 286.346 245.856C286.346 245.136 286.506 244.472 286.826 243.864C287.146 243.24 287.586 242.704 288.146 242.256C288.722 241.808 289.378 241.464 290.114 241.224C290.866 240.984 291.658 240.864 292.49 240.864C293.514 240.864 294.41 240.984 295.178 241.224C295.946 241.448 296.61 241.776 297.17 242.208C297.746 242.64 298.226 243.168 298.61 243.792L296.33 246C295.994 245.552 295.626 245.176 295.226 244.872C294.842 244.568 294.418 244.344 293.954 244.2C293.506 244.04 293.042 243.96 292.562 243.96C292.034 243.96 291.578 244.032 291.194 244.176C290.81 244.304 290.506 244.496 290.282 244.752C290.074 245.008 289.97 245.32 289.97 245.688C289.97 245.976 290.042 246.232 290.186 246.456C290.33 246.68 290.538 246.88 290.81 247.056C291.082 247.216 291.41 247.36 291.794 247.488C292.178 247.616 292.602 247.728 293.066 247.824C293.946 248 294.738 248.232 295.442 248.52C296.146 248.808 296.746 249.16 297.242 249.576C297.754 249.976 298.146 250.456 298.418 251.016C298.69 251.56 298.826 252.176 298.826 252.864C298.826 254 298.554 254.968 298.01 255.768C297.466 256.568 296.714 257.184 295.754 257.616C294.794 258.032 293.674 258.24 292.394 258.24ZM302.086 258V241.2H305.686V258H302.086ZM303.742 251.328V248.232H312.43V251.328H303.742ZM303.742 244.44V241.2H313.438V244.44H303.742ZM316.373 258V254.904H319.181V244.296H316.373V241.2H325.589V244.296H322.781V254.904H325.589V258H316.373ZM333.036 258V244.44H328.14V241.2H341.676V244.44H336.636V258H333.036ZM348.879 258V244.44H343.983V241.2H357.519V244.44H352.479V258H348.879ZM360.493 258V241.2H371.845V244.368H363.997V254.832H372.013V258H360.493ZM362.173 250.968V247.896H370.693V250.968H362.173ZM375.727 258V241.2H383.167C384.207 241.2 385.151 241.44 385.999 241.92C386.847 242.384 387.511 243.016 387.991 243.816C388.487 244.616 388.735 245.528 388.735 246.552C388.735 247.56 388.487 248.48 387.991 249.312C387.511 250.128 386.847 250.776 385.999 251.256C385.151 251.736 384.207 251.976 383.167 251.976H379.207V258H375.727ZM385.255 258L380.983 250.416L384.679 249.816L389.431 258.024L385.255 258ZM379.207 249.048H382.999C383.431 249.048 383.807 248.952 384.127 248.76C384.463 248.552 384.719 248.272 384.895 247.92C385.071 247.552 385.159 247.144 385.159 246.696C385.159 246.216 385.055 245.8 384.847 245.448C384.639 245.096 384.335 244.824 383.935 244.632C383.535 244.424 383.071 244.32 382.543 244.32H379.207V249.048Z" fill="white"/>
<path d="M319.981 21L287.255 142.149C282.515 159.699 291.497 178.791 309.596 181.973C313.197 182.605 316.737 182.999 319.971 183C274.699 182.995 238 146.732 238 102C238 57.2649 274.704 21 319.981 21Z" fill="white"/>
<path d="M319.98 183C323.218 183 326.761 182.606 330.365 181.973C348.464 178.791 357.446 159.699 352.706 142.149L319.98 21C365.257 21 401.961 57.2649 401.961 102C401.961 146.735 365.257 183 319.98 183Z" fill="white"/>
<path d="M320.48 183C323.718 183 327.261 182.606 330.865 181.973C348.964 178.791 357.946 159.699 353.206 142.149L320.48 21C365.757 21 402.461 57.2649 402.461 102C402.461 146.735 365.757 183 320.48 183Z" fill="white"/>
<path d="M319.98 183C307.792 183 301.822 169.222 304.965 157.587L319.98 102L334.996 157.587C338.138 169.222 332.169 183 319.98 183Z" fill="white"/>
<defs>
<linearGradient id="paint0_linear_2047_33" x1="100" y1="300" x2="100" y2="0" gradientUnits="userSpaceOnUse">
<stop stop-color="#682B96"/>
<stop offset="1" stop-color="#8B60A1"/>
</linearGradient>
<linearGradient id="paint1_linear_2047_33" x1="540" y1="300" x2="540" y2="0" gradientUnits="userSpaceOnUse">
<stop stop-color="#378A39"/>
<stop offset="1" stop-color="#8CC448"/>
</linearGradient>
<linearGradient id="paint2_linear_2047_33" x1="320" y1="300" x2="320" y2="0" gradientUnits="userSpaceOnUse">
<stop stop-color="#C6551C"/>
<stop offset="1" stop-color="#E4933A"/>
</linearGradient>
</defs>
</svg>
